<?xml version="1.0"?>
<svg width="210" height="256" xmlns="http://www.w3.org/2000/svg" xmlns:svg="http://www.w3.org/2000/svg" enable-background="new 0 0 210 256" version="1.1" xml:space="preserve">

 <g class="layer">
  <title>Layer 1</title>
  <path d="m174.55,144.5l0,0c-1.4,-4 -5,-6.5 -9.2,-6.5l-6.35,0l0,-115c0,-11.71 -9.29,-21 -21,-21l-113,0c-12.43,0 -23,10.57 -23,23l0,183c0,11.9 10.95,22 22.75,22l114.21,0c1.21,0 2.27,0.98 2.18,2.19c-0.09,1.26 -1.15,1.81 -2.39,1.81l-45.5,0l34.75,20l80,0l-33.45,-109.5zm-92.5,75.7c-3.2,0 -5.6,-2.4 -5.6,-5.6c0,-3.04 2.56,-5.6 5.6,-5.6c3.2,0 5.6,2.4 5.6,5.6c-0.1,3.2 -2.4,5.6 -5.6,5.6zm61.95,-82.2l-19.65,0c-5.3,0 -9.8,4.7 -9.8,10l0,0c0,5.3 4.5,10 9.8,10l19.8,0l0,42l-126.15,0l0,-169l126,0l0,107zm-64,-94.5c-25.64,0 -46.5,20.86 -46.5,46.5s20.86,46.5 46.5,46.5s46.5,-20.86 46.5,-46.5s-20.86,-46.5 -46.5,-46.5zm34.39,28.67l-12.58,0c-1.04,-4.79 -2.49,-9.22 -4.34,-13.07c-0.87,-1.82 -1.81,-3.47 -2.81,-4.96c8.51,3.49 15.51,9.93 19.73,18.03zm4.36,17.83c0,3.77 -0.55,7.41 -1.56,10.85l-14.21,0c0.44,-3.51 0.66,-7.15 0.66,-10.85c0,-3.43 -0.19,-6.81 -0.57,-10.08l14.34,0c0.87,3.22 1.34,6.6 1.34,10.08zm-38.75,37.46c-5.15,0 -10.7,-7.22 -13.69,-18.86l27.38,0c-2.99,11.64 -8.54,18.86 -13.69,18.86zm-15.18,-26.61c-0.45,-3.39 -0.71,-7.01 -0.71,-10.85c0,-3.54 0.22,-6.91 0.61,-10.08l30.56,0c0.4,3.17 0.61,6.54 0.61,10.08c0,3.84 -0.25,7.46 -0.71,10.85l-30.36,0zm-23.57,-10.85c0,-3.48 0.47,-6.86 1.34,-10.08l14.33,0c-0.37,3.27 -0.56,6.65 -0.56,10.08c0,3.7 0.22,7.34 0.65,10.85l-14.2,0c-1.01,-3.44 -1.56,-7.08 -1.56,-10.85zm38.75,-37.46c5.26,0 10.94,7.54 13.88,19.63l-27.76,0c2.94,-12.09 8.62,-19.63 13.88,-19.63zm-14.66,1.6c-1,1.49 -1.94,3.14 -2.81,4.96c-1.85,3.85 -3.3,8.28 -4.34,13.07l-12.58,0c4.22,-8.1 11.22,-14.54 19.73,-18.03zm-19.32,54.46l12.34,0c1.02,4.5 2.42,8.65 4.17,12.3c0.87,1.82 1.81,3.47 2.81,4.96c-8.24,-3.38 -15.07,-9.52 -19.32,-17.26zm48.64,17.26c1,-1.49 1.94,-3.14 2.81,-4.96c1.75,-3.65 3.15,-7.8 4.17,-12.3l12.34,0c-4.25,7.74 -11.08,13.88 -19.32,17.26z" fill="#ffffff" id="svg_1"/>
 </g>
</svg>