<?xml version="1.0"?>
<svg width="215" height="64" xmlns="http://www.w3.org/2000/svg" xmlns:svg="http://www.w3.org/2000/svg">

 <g class="layer">
  <title>Layer 1</title>
  <path d="m1.07,45.08c0,-2.88 2.35,-5.21 5.25,-5.21l27.99,0c2.9,0 5.25,2.33 5.25,5.21s-2.35,5.21 -5.25,5.21l-27.99,0c-2.9,0 -5.25,-2.33 -5.25,-5.21z" fill="#6CF" id="svg_1"/>
  <path clip-rule="evenodd" d="m2.61,13.59c2.05,-2.03 5.37,-2.03 7.42,0l14,13.9c2.05,2.04 2.05,5.34 0,7.38l-14,13.9c-2.05,2.03 -5.37,2.03 -7.42,0c-2.05,-2.04 -2.05,-5.34 0,-7.38l9.67,-9.6c0.34,-0.34 0.34,-0.89 0,-1.22l-9.67,-9.6c-2.05,-2.04 -2.05,-5.34 0,-7.38z" fill="#06F" fill-rule="evenodd" id="svg_2"/>
  <path d="m18.99,39.87l-8.96,8.9c-2.05,2.03 -5.37,2.03 -7.42,0c-2.05,-2.04 -2.05,-5.34 0,-7.38l1.54,-1.52l14.84,0z" fill="#C6F" id="svg_3"/>
  <path d="m34.31,50.29c2.9,0 5.25,-2.33 5.25,-5.21s-2.35,-5.21 -5.25,-5.21c-2.9,0 -5.25,2.33 -5.25,5.21s2.35,5.21 5.25,5.21z" fill="#06F" id="svg_4"/>
  <path clip-rule="evenodd" d="m200.55,45.34l-3.78,0l-8.26,-20.33l4.13,0l6.02,15.72l6.02,-15.72l4.13,0l-8.26,20.33zm-28.89,-12.47l11.69,0c-0.17,-2.74 -2.41,-4.96 -5.85,-4.96c-2.92,0 -5.16,1.88 -5.84,4.96zm6.19,13.15c-6.02,0 -10.32,-4.61 -10.32,-10.76c0,-6.15 4.3,-10.76 10.15,-10.76c6.02,0 9.97,4.1 9.97,11.1l0,0.34l-15.99,0c0.17,3.93 3.09,6.66 6.53,6.66c2.41,0 4.47,-1.19 5.68,-3.58l3.44,1.71c-1.89,3.24 -5.33,5.29 -9.46,5.29zm-24.08,0c-5.33,0 -9.81,-4.78 -9.81,-10.76s4.48,-10.76 9.81,-10.76c2.92,0 5.67,1.36 7.05,3.41l0.17,0l-0.17,-2.73l0,-9.4l3.78,0l0,29.56l-3.61,0l0,-2.74l-0.17,0c-1.55,2.05 -4.13,3.42 -7.05,3.42zm0.51,-3.42c3.79,0 6.54,-2.9 6.54,-7.34c0,-4.27 -2.75,-7.35 -6.54,-7.35c-3.61,0 -6.53,3.08 -6.53,7.35c0,4.27 2.92,7.34 6.53,7.34zm-11.69,0.18c0,1.53 -1.21,2.73 -2.93,2.73c-1.54,0 -2.92,-1.37 -2.92,-2.73c0,-1.54 1.38,-2.74 2.92,-2.74c1.72,0 2.93,1.2 2.93,2.74zm-18.06,-0.18c3.61,0 6.53,-3.07 6.53,-7.34s-2.92,-7.35 -6.53,-7.35c-3.79,0 -6.54,3.08 -6.54,7.35c0,4.27 2.75,7.34 6.54,7.34zm0.69,3.42c-2.93,0 -5.68,-1.37 -7.06,-3.42l-0.17,0l0,2.74l-3.61,0l0,-29.56l3.78,0l0,9.4l-0.17,2.73l0.17,0c1.38,-2.05 3.96,-3.41 7.06,-3.41c5.33,0 9.8,4.78 9.8,10.76c-0.17,5.98 -4.47,10.76 -9.8,10.76zm-29.93,-13.15l11.69,0c-0.17,-2.74 -2.4,-4.96 -5.84,-4.96c-2.93,0 -5.16,1.88 -5.85,4.96zm6.19,13.15c-6.02,0 -10.32,-4.61 -10.32,-10.76c0,-6.15 4.3,-10.76 10.15,-10.76c6.02,0 9.97,4.1 9.97,11.1l0,0.34l-15.99,0c0.17,3.93 3.09,6.66 6.53,6.66c2.41,0 4.3,-1.19 5.68,-3.58l3.44,1.71c-1.89,3.24 -5.33,5.29 -9.46,5.29zm-10.84,-20.84l-6.53,20.33l-3.96,0l-5.16,-15.55l-4.99,15.55l-3.95,0l-6.71,-20.33l3.96,0l4.47,15.37l4.99,-15.37l3.95,0l4.99,15.37l4.47,-15.37l4.47,0z" fill="#f7faff" fill-rule="evenodd" id="svg_5"/>
 </g>
</svg>